# xmcd CD database file
#
# Track frame offsets:
#	150
#	13630
#	26568
#	41090
#	55638
#	70170
#	84505
#	102438
#	115640
#	130963
#	145608
#	159543
#
# Disc length: 2285 seconds
#
# Revision: 0
# Processed by: cddbd v1.5.2PL0 Copyright (c) Steve Scherf et al.
# Submitted via: CDex 1.51
#
DISCID=9608eb0c
DTITLE=Brook Benton - The Best of Brook Benton
DYEAR=1900
DGENRE=Blues
TTITLE0=Loving Arms
TTITLE1=Loving The Easy Way
TTITLE2=There's A Honkey Tonk Angel
TTITLE3=Watch Out For Lucy
TTITLE4=Reachin' For The Feelin'
TTITLE5=So High
TTITLE6=Drift Away
TTITLE7=L.A. Lady
TTITLE8=Good Old Song
TTITLE9=Mississippi Rolling Stone
TTITLE10=Hey Dixie
TTITLE11=We Had It All
EXTD=
EXTT0=
EXTT1=
EXTT2=
EXTT3=
EXTT4=
EXTT5=
EXTT6=
EXTT7=
EXTT8=
EXTT9=
EXTT10=
EXTT11=
PLAYORDER=
